<svg width="96" height="96" viewBox="0 0 96 96" fill="none" xmlns="http://www.w3.org/2000/svg">
  <defs>
    <linearGradient id="bg" x1="8" y1="12" x2="88" y2="84" gradientUnits="userSpaceOnUse">
      <stop stop-color="#110428" />
      <stop offset="1" stop-color="#3C1697" />
    </linearGradient>
    <linearGradient id="accent" x1="24" y1="16" x2="76" y2="78" gradientUnits="userSpaceOnUse">
      <stop stop-color="#F5F5FF" />
      <stop offset="1" stop-color="#C5B5FF" />
    </linearGradient>
  </defs>
  <rect x="6" y="6" width="84" height="84" rx="24" fill="url(#bg)" />
  <rect x="6" y="6" width="84" height="84" rx="24" stroke="rgba(255,255,255,0.15)" stroke-width="2" />
  <path
    d="M23 68V28h11l8.2 10.5L50.4 28H61v40h-8.4V44.8L42.2 55.7 31.6 44.8V68H23Z"
    fill="url(#accent)"
  />
  <path
    d="M47 28h17.5c6.2 0 11.2 5 11.2 11.2 0 5.2-3.5 9.8-8.5 11l-8.9 2.1c-2.8.7-4.6 2.9-4.6 5.9 0 3.3 2.6 5.9 5.9 5.9h13.1V68H59.8c-7 0-12.7-5.7-12.7-12.7 0-5.9 4.1-11 9.8-12.3l8.7-2c2-.4 3.4-2.2 3.4-4.3 0-2.5-2-4.5-4.5-4.5H47V28Z"
    fill="white"
    opacity="0.9"
  />
  <circle cx="72" cy="24" r="6" fill="#F9F1FF" opacity="0.6" />
</svg>
